<svg width="30" height="31" viewBox="0 0 30 31" fill="none" xmlns="http://www.w3.org/2000/svg">
<path d="M4.59687 2.82325C4.98788 2.85879 5.35417 3.03272 5.63177 3.31465L26.7354 24.7484C27.8421 25.8724 26.9609 27.7869 25.4019 27.6452V27.6452C25.0109 27.6096 24.6446 27.4357 24.367 27.1538L3.26341 5.72006C2.15668 4.59601 3.03794 2.68155 4.59687 2.82325V2.82325Z" fill="#F75E7E"/>
<path d="M2.78074 25.7999C2.81574 25.4028 2.98699 25.0308 3.26458 24.7488L24.3682 3.31511C25.4749 2.19107 27.3599 3.08611 27.2204 4.66942V4.66942C27.1854 5.06655 27.0142 5.43857 26.7366 5.72051L5.63294 27.1542C4.52621 28.2783 2.64123 27.3832 2.78074 25.7999V25.7999Z" fill="#F75E7E"/>
</svg>
