<svg width="36" height="36" viewBox="0 0 36 36" fill="none" xmlns="http://www.w3.org/2000/svg">
<path d="M11.5176 0.195312C12.2515 0.195312 12.8281 0.77851 12.8281 1.48178C12.8281 1.99636 13.2649 2.40803 13.7891 2.40803H15.5189C18.1573 2.42519 20.3064 4.53499 20.3239 7.10792V7.43383C21.9838 7.43383 23.6437 7.46813 25.3211 7.48529C31.3841 7.48529 35.8047 11.8078 35.8047 17.777V25.4443C35.8047 31.4135 31.3841 35.7361 25.3211 35.7361C22.8924 35.7875 20.4637 35.8047 18.0175 35.8047C15.5713 35.8047 13.1076 35.7875 10.6789 35.7361C4.61591 35.7361 0.195312 31.4135 0.195312 25.4443V17.777C0.195312 11.8078 4.61591 7.48529 10.6964 7.48529C12.9853 7.45098 15.3267 7.41667 17.703 7.41667V7.12507C17.703 5.94153 16.707 4.98097 15.5189 4.98097H13.7891C11.8147 4.98097 10.2072 3.4029 10.2072 1.48178C10.2072 0.77851 10.8012 0.195312 11.5176 0.195312ZM12.8106 17.2281C12.0768 17.2281 11.5002 17.8113 11.5002 18.5146V20.3156H9.64805C8.93167 20.3156 8.33759 20.8988 8.33759 21.6021C8.33759 22.3225 8.93167 22.8886 9.64805 22.8886H11.5002V24.7068C11.5002 25.41 12.0768 25.9932 12.8106 25.9932C13.527 25.9932 14.1211 25.41 14.1211 24.7068V22.8886H15.9557C16.6721 22.8886 17.2661 22.3225 17.2661 21.6021C17.2661 20.8988 16.6721 20.3156 15.9557 20.3156H14.1211V18.5146C14.1211 17.8113 13.527 17.2281 12.8106 17.2281ZM26.5442 23.3174H26.3694C25.6338 23.3174 25.059 23.9006 25.059 24.6039C25.059 25.3243 25.6338 25.8903 26.3694 25.8903H26.5442C27.2605 25.8903 27.8546 25.3243 27.8546 24.6039C27.8546 23.9006 27.2605 23.3174 26.5442 23.3174ZM23.5563 17.4168H23.3816C22.6477 17.4168 22.0711 18 22.0711 18.7033C22.0711 19.4237 22.6477 19.9897 23.3816 19.9897H23.5563C24.2727 19.9897 24.8668 19.4237 24.8668 18.7033C24.8668 18 24.2727 17.4168 23.5563 17.4168Z" fill="url(#paint0_linear_2026_61)"/>
<defs>
<linearGradient id="paint0_linear_2026_61" x1="18" y1="0.195312" x2="18" y2="35.8047" gradientUnits="userSpaceOnUse">
<stop stop-color="#EDFBFF"/>
<stop offset="1" stop-color="#F8F9FF"/>
</linearGradient>
</defs>
</svg>
