<svg width="250" height="241" viewBox="0 0 250 241" fill="none" xmlns="http://www.w3.org/2000/svg">
<path d="M84.0959 1.99361C84.0994 0.891537 84.9938 0 86.0959 0H88.8266C89.9337 0 90.8301 0.899328 90.8266 2.00639L90.0701 238.84C90.0666 239.942 89.1722 240.833 88.0702 240.833H85.3394C84.2323 240.833 83.3359 239.934 83.3394 238.827L84.0959 1.99361Z" fill="#50359A"/>
<path d="M167.43 1.99361C167.433 0.891537 168.328 0 169.43 0H172.161C173.268 0 174.164 0.899328 174.161 2.00639L173.404 238.84C173.401 239.942 172.506 240.833 171.404 240.833H168.673C167.566 240.833 166.67 239.934 166.673 238.827L167.43 1.99361Z" fill="#50359A"/>
<path d="M1.99316 165.819C0.891271 165.815 0 164.921 0 163.819L0 160.341C0 159.233 0.899603 158.337 2.00684 158.341L248.007 159.182C249.109 159.185 250 160.08 250 161.182V164.66C250 165.767 249.1 166.664 247.993 166.66L1.99316 165.819Z" fill="#50359A"/>
<path d="M1.99316 82.4851C0.891271 82.4814 0 81.587 0 80.4851L0 77.0065C0 75.8993 0.899603 75.0028 2.00684 75.0065L248.007 75.8476C249.109 75.8513 250 76.7456 250 77.8475V81.3262C250 82.4334 249.1 83.3299 247.993 83.3261L1.99316 82.4851Z" fill="#50359A"/>
<path d="M69.1667 34.5833C69.1667 48.1603 58.1603 59.1667 44.5833 59.1667C31.0063 59.1667 20 48.1603 20 34.5833C20 21.0063 31.0063 10 44.5833 10C58.1603 10 69.1667 21.0063 69.1667 34.5833Z" stroke="#499DFF" stroke-width="5"/>
<path d="M238.334 204.583C238.334 218.16 227.327 229.167 213.75 229.167C200.173 229.167 189.167 218.16 189.167 204.583C189.167 191.006 200.173 180 213.75 180C227.327 180 238.334 191.006 238.334 204.583Z" stroke="#499DFF" stroke-width="5"/>
<path d="M111.031 99.2178C111.494 99.2599 111.928 99.466 112.257 99.8L151.964 140.128C153.276 141.46 152.232 143.729 150.384 143.561L147.3 143.281C146.837 143.238 146.403 143.032 146.074 142.698L106.367 102.37C105.055 101.038 106.1 98.7695 107.947 98.9374L111.031 99.2178Z" fill="#F75E7E"/>
<path d="M107.475 139.668C107.516 139.198 107.719 138.757 108.048 138.423L147.755 98.0944C149.067 96.7624 151.3 97.823 151.135 99.6992L150.859 102.831C150.818 103.302 150.615 103.743 150.286 104.077L110.579 144.405C109.267 145.737 107.034 144.677 107.199 142.8L107.475 139.668Z" fill="#F75E7E"/>
</svg>
